<?xml version="1.0"?>
<svg version="1.1" xmlns="http://www.w3.org/2000/svg" width="400" height="55" style=""><path fill="#ffffff" d="M19.35,50.55l11.4-30.8l5-0.25l11.1,31.05l4.15,0.95l0,3l-14.5,0l0-3l4.65-0.95l-1.9-5.55l-13,0l-1.95,5.55l4.7,0.95l0,3l-13.75,0l0-3z M37.9,41l-5.05-15.05l-5.25,15.05l10.3,0z M56.93,54.5l0-3l4.25-1l0-27l-4.25-1l0-2.75l14.25-0.25l0,3l-4.75,1l0,11l4.6,0l8.65-14.75l8.25-0.25l0,3l-4.95,1l-7.6,12.65l10.3,14.35l4.25,1l0,3l-14.25,0l0-3l4.25-1l-8.6-12l-4.9,0l0,12l4.75,1l0,3l-14.25,0z M111.89,50.55l11.4-30.8l5-0.25l11.1,31.05l4.15,0.95l0,3l-14.5,0l0-3l4.65-0.95l-1.9-5.55l-13,0l-1.95,5.55l4.7,0.95l0,3l-13.75,0l0-3z M130.44,41l-5.05-15.05l-5.25,15.05l10.3,0z M157.47,28l0.45,3.65c1.25-1.4,4.15-4.15,7.55-4.15c2.5,0,4.5,0.75,4.5,0.75l-0.25,7.25l-3.25,0l-0.75-3.75c-3.75,0-6.15,2.45-7.25,3.9l0,14.85l5,1.25l0,2.75l-14.25,0l0-2.75l4.25-1.25l0-18.5l-4.25-1l0-2.75z M193.9,36.25l-0.75-4.25s-2-0.5-4.5-0.5c-4.75,0-7.5,3-7.5,9.25c0,6.75,3,10.25,7.75,10.25s7.75-3,7.75-3l1.75,3s-4.5,4-10,4c-8.25,0-12.5-5.25-12.5-13.75c0-8,5-13.75,13-13.75c4.5,0,8.5,2,8.5,2l-0.25,6.75l-3.25,0z M213.33,16l0,15.1c1.55-1.3,5.05-3.6,8.75-3.6c5.5,0,8,3.5,8,9l0,14l3.75,1.25l0,2.75l-12,0l0-2.75l3.25-1.2l0-13.55c0-3.5-1.1-5.25-4.35-5.25c-4.25,0-7.4,4-7.4,4l0,14.75l3.25,1.25l0,2.75l-12.5,0l0-2.75l4.25-1.25l0-30.5l-4.25-1l0-2.75z M244.01,19.75c0-2.25,1.5-3.5,3.25-3.5c2,0,3.25,1,3.25,3.5c0,2.25-1.75,3.5-3.25,3.5c-2,0-3.25-1.25-3.25-3.5z M253.76,51.75l0,2.75l-13,0l0-2.75l4.25-1.25l0-18.5l-4.25-1l0-2.75l9.25-0.25l0,22.5z M277.19,28.25l0,3.75l-7.25,0l0,16.05c0,2.3,1.1,3.05,2.5,3.05c1.2,0,2.6-0.55,3.9-1.25l1.35,2.65c-2.25,1.65-4.5,2.5-7,2.5c-3,0-5.75-1.65-5.75-7.25l0-15.75l-5,0l0-3.25l5-0.5l0-6.3l5-1l0,7.3l7.25,0z M306.62,42l-17.25,0c0,5.5,2.95,9,7.25,9c5,0,8.4-2.75,8.4-2.75l1.75,2.6s-4.65,4.15-10.65,4.15c-8,0-12-5.25-12-13.5c0-8,5-14,12.25-14s10.5,4.25,10.5,11.75c0,1.25-0.25,2.65-0.25,2.75z M289.57,38.25l12,0c0-3.75-1.45-6.85-5.45-6.85s-6.25,3.1-6.55,6.85z M332.55,36.25l-0.75-4.25s-2-0.5-4.5-0.5c-4.75,0-7.5,3-7.5,9.25c0,6.75,3,10.25,7.75,10.25s7.75-3,7.75-3l1.75,3s-4.5,4-10,4c-8.25,0-12.5-5.25-12.5-13.75c0-8,5-13.75,13-13.75c4.5,0,8.5,2,8.5,2l-0.25,6.75l-3.25,0z M359.73,28.25l0,3.75l-7.25,0l0,16.05c0,2.3,1.1,3.05,2.5,3.05c1.2,0,2.6-0.55,3.9-1.25l1.35,2.65c-2.25,1.65-4.5,2.5-7,2.5c-3,0-5.75-1.65-5.75-7.25l0-15.75l-5,0l0-3.25l5-0.5l0-6.3l5-1l0,7.3l7.25,0z M367.41,28.5l0-12.5l4.75,0l-1,12.5l-3.75,0z M384.14,46.5l0.55,4.3s1.5,0.45,4.2,0.45c3,0,5.65-0.85,5.65-3.95c0-5.4-13.95-2.9-13.95-12c0-5.2,4-7.8,9.15-7.8c3.95,0,8.55,1.5,8.55,1.5l-0.15,6.75l-3.25,0l-0.8-3.9s-1.55-0.6-4.05-0.6c-2.55,0-4.45,0.8-4.45,3.35c0,5.35,13.95,3.3,13.95,11.85c0,5.75-5,8.55-11,8.55c-4.6,0-7.9-1.1-7.9-1.1l0-7.4l3.5,0z"/><path fill="#" d=""/></svg>
